<?xml version="1.0" encoding="utf-8"?>
<!-- Generator: Adobe Illustrator 22.0.1, SVG Export Plug-In . SVG Version: 6.00 Build 0)  -->
<svg version="1.1" id="BG" xmlns="http://www.w3.org/2000/svg" xmlns:xlink="http://www.w3.org/1999/xlink" x="0px" y="0px"
	 viewBox="0 0 1214 562" style="enable-background:new 0 0 1214 562;" xml:space="preserve">
<style type="text/css">
	.st0{fill:#204056;}
	.st1{fill:none;stroke:#50778F;stroke-miterlimit:10;}
	.st2{fill:#7A98A9;}
	.st3{fill:#7B98A8;}
	.st4{fill:#FFFFFF;}
</style>
<title>htmlcss1-diagram_</title>
<rect x="1.1" y="-1" class="st0" width="1214" height="564"/>
<line class="st1" x1="936.3" y1="228.4" x2="936.3" y2="206.6"/>
<g>
	<path class="st2" d="M126.8,347.4l-52.4-25.1V317l52.5-27v8.6l-42.4,20.8l42.3,19.4C126.8,338.8,126.8,347.4,126.8,347.4z"/>
	<path class="st2" d="M140.8,381.4v-86h8l0.9,8.1c5.3-6.3,11.6-9.4,18.9-9.4c4.9-0.2,9.8,1.3,13.9,4.1c3.8,2.8,6.8,6.7,8.4,11.1
		c1.9,5.2,2.8,10.8,2.7,16.3c0.1,5.5-0.9,10.9-3,15.9c-1.8,4.4-4.8,8.2-8.7,11c-3.9,2.7-8.6,4.1-13.4,4c-3.8,0-7.5-0.9-10.9-2.6
		c-3.2-1.6-6-3.9-8.1-6.9c0.2,3.9,0.3,7.8,0.3,11.5v22.2L140.8,381.4z M167.4,349c2.6,0,5.2-0.6,7.4-1.9c2.2-1.2,4-3,5.3-5.2
		c1.4-2.3,2.4-4.8,3.1-7.5c0.7-3,1-6,1-9c0-6.9-1.4-12.5-4.3-16.9c-2.9-4.4-7.1-6.6-12.6-6.6c-11.6,0-17.4,7.5-17.4,22.5
		c0,8.1,1.4,14.3,4.1,18.4S161.1,349,167.4,349z"/>
	<path class="st2" d="M205,338.4l42.3-19l-42.2-21.1v-8.5l52.4,27.3v5.3L205,347.1V338.4L205,338.4z"/>
	<path class="st2" d="M334.9,355.4h-9.5v-37.8H282v37.8h-9.5v-80.9h9.5v34.7h43.4v-34.7h9.5V355.4z"/>
	<path class="st2" d="M377.6,356.7c-8.7,0-15.6-2.8-20.6-8.3c-5-5.5-7.5-13.1-7.5-22.8c0-9.3,2.4-16.8,7.3-22.6
		c4.8-5.8,11.2-8.7,19.1-8.8c7.4,0,13.3,2.5,17.7,7.6s6.5,11.9,6.5,20.4c0,0.4,0,1.2,0,2.4c0,1.2,0,2,0,2.5h-41.2
		c0.1,6.8,1.8,12.1,5.3,15.9s8,5.7,13.8,5.7c6.7-0.1,13.2-1.8,19.1-5l1.4,7.4C392.1,354.9,384.9,356.8,377.6,356.7z M386.8,306.5
		c-2.7-3.2-6.3-4.8-11-4.8c-4.4-0.1-8.5,1.7-11.4,5c-3,3.3-4.7,7.8-5.2,13.5h31.6C390.8,314.2,389.5,309.7,386.8,306.5z"/>
	<path class="st2" d="M428.9,356.5c-5.8,0-10-1.6-12.4-4.7c-2.4-3.1-3.6-8.6-3.6-16.3v-63.3l9.1-0.5v60.3c0,2.5,0,4.5,0.1,6
		c0.1,1.5,0.2,2.9,0.4,4.4c0.1,1.1,0.4,2.2,0.9,3.2c0.4,0.8,0.9,1.4,1.6,2c0.7,0.6,1.6,1,2.5,1.2c1.2,0.2,2.4,0.3,3.6,0.3
		c2.3-0.1,4.6-0.3,6.9-0.7l0.5,7.3C435.3,356.2,432.1,356.5,428.9,356.5z"/>
	<path class="st2" d="M460,356.5c-5.8,0-10-1.6-12.4-4.7c-2.4-3.1-3.6-8.6-3.6-16.4v-63.3l9.1-0.5v60.3c0,2.5,0,4.5,0.1,6
		c0.1,1.5,0.2,2.9,0.4,4.4c0.1,1.1,0.4,2.2,0.9,3.2c0.4,0.8,0.9,1.4,1.6,2c0.7,0.6,1.6,1,2.5,1.2c1.2,0.2,2.4,0.3,3.6,0.3
		c2.3-0.1,4.6-0.3,6.9-0.7l0.5,7.3C466.4,356.2,463.2,356.5,460,356.5z"/>
	<path class="st2" d="M527.8,325.4c0,9.3-2.5,16.8-7.4,22.6s-11.8,8.7-20.6,8.7c-8.4,0-15.1-2.9-20.1-8.8c-5-5.8-7.5-13.3-7.5-22.5
		c0-9.3,2.5-16.9,7.5-22.6c5-5.8,11.8-8.6,20.6-8.6c8.6,0,15.3,2.9,20.2,8.7C525.4,308.6,527.8,316.1,527.8,325.4z M481.7,325.5
		c0,7.1,1.6,12.8,4.7,17.1s7.8,6.4,13.8,6.4c6,0,10.5-2.1,13.5-6.4c3-4.3,4.5-10,4.6-17.2c0-7.3-1.5-13.1-4.5-17.3
		c-3-4.2-7.6-6.3-13.8-6.3c-6,0-10.6,2.1-13.7,6.5S481.7,318.3,481.7,325.5L481.7,325.5z"/>
	<path class="st2" d="M585.2,355.4l-24.4-80.9h9.9l20,69.6l20-68.1h10.7l19.4,68.2l20.2-69.7h9.9l-24.7,80.9h-10.3l-19.7-68
		l-20.7,68H585.2z"/>
	<path class="st2" d="M729,325.4c0,9.3-2.5,16.8-7.4,22.6c-5,5.8-11.8,8.7-20.6,8.7c-8.4,0-15.1-2.9-20.1-8.8
		c-5-5.8-7.5-13.3-7.5-22.5c0-9.3,2.5-16.9,7.5-22.6c5-5.8,11.8-8.6,20.6-8.6c8.6,0,15.3,2.9,20.2,8.7
		C726.6,308.6,729,316.1,729,325.4z M682.9,325.5c0,7.1,1.6,12.8,4.7,17.1c3.2,4.3,7.8,6.4,13.8,6.4c6,0,10.5-2.1,13.5-6.4
		c3-4.3,4.5-10,4.6-17.2c0-7.3-1.5-13.1-4.5-17.3c-3-4.2-7.6-6.3-13.8-6.3c-6,0-10.6,2.1-13.7,6.5S682.9,318.3,682.9,325.5
		L682.9,325.5z"/>
	<path class="st2" d="M768.9,294.9c1.5,0,3,0.1,4.5,0.3l-0.3,8.4c-1.4-0.3-2.9-0.4-4.4-0.4c-4.7-0.2-9.3,1.8-12.4,5.3
		c-3.2,3.6-4.9,8.4-4.8,13.2v33.7h-9.1c0-36.8-0.1-56.8,0-60h7.6l0.9,10.8c2-3.3,4.7-6.1,7.9-8.2C761.7,296,765.2,294.9,768.9,294.9
		z"/>
	<path class="st2" d="M798.9,356.5c-5.8,0-10-1.6-12.4-4.7c-2.4-3.1-3.6-8.6-3.6-16.3v-63.3l9.1-0.5v60.3c0,2.5,0,4.5,0.1,6
		c0.1,1.5,0.2,2.9,0.4,4.4c0.1,1.1,0.4,2.2,0.9,3.2c0.4,0.8,0.9,1.4,1.6,2c0.7,0.6,1.6,1,2.5,1.2c1.2,0.2,2.4,0.3,3.6,0.3
		c2.3-0.1,4.6-0.3,6.9-0.7l0.5,7.3C805.2,356.2,802.1,356.5,798.9,356.5z"/>
	<path class="st2" d="M855.3,346.7c-2,3-4.7,5.5-7.9,7.2c-3.4,1.8-7.2,2.7-11,2.7c-7.9,0-14.1-2.8-18.6-8.5
		c-4.5-5.6-6.7-13.3-6.7-23c0-9.3,2.3-16.7,6.8-22.5c4.6-5.7,10.7-8.6,18.3-8.6c3.9,0,7.7,0.9,11.2,2.6c3.3,1.5,6,3.9,7.9,7
		l-0.2-5.2v-26.4l9-0.5v83.8h-7.8L855.3,346.7z M837.3,348.8c6,0,10.5-1.9,13.4-5.8c3-3.9,4.4-9.4,4.4-16.6c0-8.1-1.4-14.2-4.2-18.3
		c-2.8-4.1-7.4-6.1-13.7-6.1c-2.6-0.1-5.2,0.6-7.4,1.8c-2.1,1.2-3.9,2.9-5.2,5c-1.4,2.3-2.4,4.8-3,7.4c-0.7,3-1,6.1-1,9.2
		c-0.1,4.1,0.5,8.2,1.7,12.1c1,3.2,2.9,6.1,5.5,8.2C830.5,347.8,833.8,348.9,837.3,348.8L837.3,348.8z"/>
	<path class="st2" d="M883,353.9c-2.6-2.9-2.6-7.2,0-10.1c3-2.9,7.7-2.9,10.7,0c2.6,2.9,2.6,7.3,0,10.2
		C890.7,356.8,886,356.8,883,353.9z M893.7,273.6v7.8l-3.1,50.3h-4.3l-3.4-50.3v-7.8L893.7,273.6L893.7,273.6z"/>
	<path class="st2" d="M962.3,347.4L910,322.3V317l52.5-27v8.6l-42.4,20.7l42.3,19.4L962.3,347.4L962.3,347.4z"/>
	<path class="st2" d="M979.2,367.3h-7.9l37-92.1h8L979.2,367.3z"/>
	<path class="st2" d="M1028.5,381.4v-86h8l0.9,8.1c5.3-6.3,11.6-9.4,18.9-9.4c4.9-0.2,9.8,1.3,13.9,4.1c3.8,2.8,6.8,6.7,8.4,11.1
		c1.9,5.2,2.8,10.8,2.7,16.3c0.1,5.5-0.9,10.9-3,15.9c-1.8,4.4-4.8,8.2-8.7,11c-3.9,2.7-8.6,4.1-13.4,4c-3.8,0-7.5-0.9-10.9-2.6
		c-3.2-1.6-6-3.9-8.2-6.9c0.2,3.9,0.3,7.8,0.3,11.5v22.2L1028.5,381.4z M1055,349c2.6,0,5.2-0.6,7.4-1.9c2.2-1.2,4-3,5.3-5.2
		c1.4-2.3,2.4-4.8,3.1-7.5c0.7-3,1-6,1-9c0-6.9-1.4-12.5-4.3-16.9c-2.9-4.4-7.1-6.6-12.6-6.6c-11.6,0-17.4,7.5-17.4,22.5
		c0,8.1,1.4,14.3,4.1,18.4S1048.7,349,1055,349z"/>
	<path class="st2" d="M1092.6,338.4l42.3-19l-42.2-21.1v-8.5l52.4,27.3v5.3l-52.5,24.7V338.4L1092.6,338.4z"/>
</g>
<polyline class="st1" points="906.6,250.2 906.6,228.4 965.6,228.4 965.6,250.2 "/>
<g>
	<path class="st3" d="M839.3,186.8c-0.2-0.8-0.4-1.6-0.5-2.6c-0.9,1-2,1.8-3.2,2.3c-1.1,0.5-2.3,0.7-3.5,0.6
		c-1.7,0.1-3.3-0.4-4.6-1.5c-1.2-1.1-1.8-2.7-1.7-4.3c-0.1-1.9,0.8-3.6,2.4-4.6c2.1-1.2,4.4-1.8,6.8-1.9l1.8-0.2l1.8-0.2v-1.8
		c0.1-1.2-0.3-2.3-1-3.2c-0.9-0.7-2-1.1-3.2-1c-2.1,0-4.2,0.5-6.1,1.4c-0.1-0.1-0.2-0.6-0.5-1.3l-0.4-1.1c1-0.5,2.1-1,3.2-1.2
		c1.2-0.3,2.5-0.5,3.8-0.5c2.5,0,4.4,0.6,5.5,1.7c1.1,1.1,1.7,3,1.7,5.6v13.5L839.3,186.8L839.3,186.8z M832.5,184.7
		c1.4,0,2.8-0.4,3.9-1.2c1.1-0.8,1.9-2,2.2-3.3v-3.4l-1.1,0.1l-1.3,0.1c-1.9,0-3.9,0.5-5.6,1.3c-1.1,0.7-1.7,1.9-1.6,3.1
		c-0.1,0.9,0.3,1.8,1,2.5C830.7,184.4,831.6,184.7,832.5,184.7L832.5,184.7z"/>
	<path class="st3" d="M847,186.8v-20.4h2.6l0.4,2.9c0.8-1,1.8-1.8,3-2.4c1.2-0.6,2.6-0.9,3.9-0.9c2.3,0,4.1,0.7,5.2,2
		s1.7,3.4,1.7,6.1v12.7h-3.1c0-8.2,0-12.5,0-13.1c0.1-1.3-0.3-2.7-1-3.8c-0.8-0.9-2-1.3-3.3-1.2c-1.4-0.1-2.8,0.3-4,1.1
		c-1,0.7-1.8,1.8-2.1,3c-0.1,0.9-0.2,1.9-0.2,2.9v11.1L847,186.8L847,186.8z"/>
	<path class="st3" d="M872.1,196.1l-0.3-2.8h3.8c0.9,0,1.8-0.1,2.8-0.2c0.7-0.1,1.4-0.4,2-0.7c0.5-0.3,0.9-0.7,1.3-1.1
		c0.4-0.5,0.6-1,0.7-1.6c0.2-0.7,0.3-1.3,0.3-2c0.1-0.7,0.1-1.5,0.1-2.4v-1.8c-0.7,1-1.6,1.8-2.6,2.5c-1.1,0.6-2.4,0.9-3.7,0.9
		c-1.1,0-2.2-0.2-3.2-0.6c-0.9-0.4-1.8-0.9-2.5-1.6c-0.7-0.7-1.3-1.5-1.7-2.3c-0.5-0.9-0.8-1.8-1-2.7c-0.2-0.9-0.3-1.9-0.3-2.8
		c0-1.4,0.2-2.8,0.5-4.1c0.3-1.2,0.9-2.4,1.6-3.4c0.7-1,1.7-1.8,2.8-2.3c1.3-0.6,2.6-0.9,4-0.8c1.2,0,2.4,0.2,3.5,0.8
		c1.1,0.6,2,1.4,2.7,2.4v-2.7h3v18.9c0,0.9,0,1.6-0.1,2.3c-0.1,0.7-0.2,1.4-0.3,2.2c-0.1,0.7-0.4,1.4-0.7,2
		c-0.3,0.6-0.7,1.2-1.2,1.7c-0.5,0.6-1.1,1.1-1.8,1.4c-0.8,0.4-1.7,0.7-2.6,0.9c-1.2,0.2-2.4,0.3-3.6,0.3L872.1,196.1L872.1,196.1z
		 M876.9,184.1c1,0,1.9-0.2,2.8-0.6c0.7-0.3,1.4-0.9,1.9-1.5c0.5-0.7,0.8-1.4,1-2.2c0.2-0.9,0.3-1.7,0.3-2.6v-1.5
		c0-0.9-0.1-1.8-0.3-2.7c-0.2-0.8-0.5-1.6-1-2.2c-0.5-0.7-1.1-1.2-1.9-1.5c-0.8-0.4-1.8-0.6-2.7-0.6c-0.8,0-1.6,0.2-2.3,0.5
		c-0.7,0.3-1.3,0.7-1.7,1.3c-0.5,0.6-0.9,1.2-1.2,1.8c-0.3,0.7-0.5,1.4-0.7,2.1c-0.1,0.7-0.2,1.4-0.2,2.2c0,0.7,0.1,1.4,0.2,2.1
		c0.2,0.7,0.4,1.4,0.7,2.1c0.3,0.6,0.7,1.2,1.2,1.8c0.5,0.5,1.1,0.9,1.7,1.2C875.4,183.9,876.1,184.1,876.9,184.1L876.9,184.1z"/>
	<path class="st3" d="M896.5,187.1c-2,0-3.4-0.5-4.2-1.6c-0.8-1.1-1.2-2.9-1.2-5.5v-21.5l3.1-0.2v20.5c0,0.8,0,1.5,0,2
		c0,0.5,0.1,1,0.1,1.5c0,0.4,0.1,0.8,0.3,1.1c0.1,0.3,0.3,0.5,0.5,0.7c0.2,0.2,0.5,0.3,0.8,0.4c0.4,0.1,0.8,0.1,1.2,0.1
		c0.8,0,1.6-0.1,2.3-0.2l0.2,2.5C898.6,187,897.6,187.1,896.5,187.1z"/>
	<path class="st3" d="M910.2,187.2c-2.6,0.1-5.2-0.9-7-2.8c-1.8-2.2-2.7-4.9-2.5-7.7c-0.1-2.8,0.8-5.5,2.5-7.7c1.6-1.9,4-3,6.5-3
		c2.3-0.1,4.5,0.9,6,2.6c1.6,2,2.3,4.4,2.2,6.9c0,0.1,0,0.4,0,0.8s0,0.7,0,0.9h-14c-0.1,2,0.5,3.9,1.8,5.4c1.2,1.3,2.9,2,4.7,1.9
		c2.3,0,4.5-0.6,6.5-1.7l0.5,2.5C915.1,186.6,912.7,187.2,910.2,187.2z M913.3,170.2c-0.9-1.1-2.3-1.7-3.7-1.6
		c-1.5,0-2.9,0.6-3.9,1.7c-1.1,1.3-1.7,2.9-1.8,4.6h10.7C914.8,173.2,914.3,171.5,913.3,170.2L913.3,170.2z"/>
	<path class="st3" d="M941.2,166c1.7,0,3.3,0.4,4.7,1.4c1.3,0.9,2.4,2.2,3,3.7c0.7,1.7,1,3.6,1,5.4c0,1.9-0.3,3.8-1,5.5
		c-0.6,1.5-1.6,2.8-3,3.8c-1.4,0.9-3,1.4-4.7,1.4c-1.3,0-2.5-0.3-3.7-0.9c-1.1-0.6-2-1.4-2.8-2.4l-0.3,2.8h-2.7v-28.3l3.1-0.2v6.7
		c0,1.7,0,3.1-0.1,4.3C936.2,167.2,938.6,166,941.2,166z M940.9,168.6c-1.7-0.1-3.4,0.6-4.5,2c-1.2,1.8-1.7,3.9-1.6,6
		c0,5.4,2,8,6.1,8c0.9,0,1.8-0.2,2.6-0.6c0.7-0.4,1.4-1,1.8-1.7c0.5-0.8,0.8-1.6,1-2.5c0.2-1,0.3-2.1,0.3-3.1c0-1.4-0.2-2.8-0.5-4.1
		c-0.3-1.1-1-2.1-1.9-2.8C943.3,168.9,942.1,168.5,940.9,168.6L940.9,168.6z"/>
	<path class="st3" d="M963.3,166.2c0.5,0,1,0,1.5,0.1l-0.1,2.9c-0.5-0.1-1-0.1-1.5-0.1c-1.6-0.1-3.2,0.6-4.2,1.8
		c-1.1,1.2-1.7,2.8-1.6,4.5v11.4h-3.1c0-12.5,0-19.3,0-20.4h2.6l0.3,3.7c0.7-1.1,1.6-2.1,2.7-2.8
		C960.9,166.6,962.1,166.2,963.3,166.2z"/>
	<path class="st3" d="M980.3,186.8c-0.2-0.8-0.4-1.6-0.5-2.6c-0.9,1-2,1.8-3.2,2.3c-1.1,0.5-2.3,0.7-3.5,0.6
		c-1.7,0.1-3.3-0.4-4.6-1.5c-1.2-1.1-1.8-2.7-1.7-4.3c-0.1-1.9,0.8-3.6,2.4-4.6c2.1-1.2,4.4-1.8,6.8-1.9l1.8-0.2l1.8-0.2v-1.8
		c0.1-1.2-0.3-2.3-1-3.2c-0.9-0.7-2-1.1-3.2-1c-2.1,0-4.2,0.5-6.1,1.4c-0.1-0.1-0.2-0.6-0.5-1.3l-0.4-1.1c1-0.5,2.1-1,3.2-1.2
		c1.2-0.3,2.5-0.5,3.8-0.5c2.5,0,4.4,0.6,5.5,1.7c1.1,1.1,1.7,3,1.7,5.6v13.5L980.3,186.8L980.3,186.8z M973.5,184.7
		c1.4,0,2.8-0.4,3.9-1.2c1.1-0.8,1.9-2,2.2-3.3v-3.4l-1.1,0.1l-1.3,0.1c-1.9,0-3.9,0.5-5.6,1.3c-1.1,0.7-1.7,1.9-1.6,3.1
		c-0.1,0.9,0.3,1.8,1,2.5C971.7,184.4,972.6,184.7,973.5,184.7L973.5,184.7z"/>
	<path class="st3" d="M996.6,187.2c-2.7,0.1-5.2-0.9-7-2.9c-1.8-2.1-2.7-4.9-2.5-7.6c-0.1-2.8,0.8-5.5,2.6-7.7c1.8-2,4.3-3.1,7-3
		c1,0,2.1,0.1,3,0.4c0.8,0.2,1.6,0.5,2.3,1l-0.8,2.4c-1.4-0.8-3-1.2-4.6-1.2c-1.8-0.1-3.5,0.7-4.7,2.1c-1.2,1.7-1.8,3.8-1.7,5.9
		c-0.1,2.1,0.5,4.1,1.7,5.8c1.1,1.4,2.9,2.2,4.7,2.1c1.7,0,3.4-0.5,4.9-1.3l0.4,2.5C1000.4,186.7,998.5,187.3,996.6,187.2z"/>
	<path class="st3" d="M1006,186.8v-28.3l3.1-0.2v17.4l0.3-0.4l0.3-0.4c1.1-1.2,3.9-4,8.3-8.5h3.9l-8.5,8.6l9,11.8h-3.9l-7.4-10
		l-2.3,2v8.1L1006,186.8L1006,186.8z"/>
	<path class="st3" d="M1033.6,187.2c-2.6,0.1-5.2-0.9-7-2.8c-1.8-2.2-2.7-4.9-2.6-7.7c-0.1-2.8,0.8-5.5,2.5-7.7c1.6-1.9,4-3,6.5-3
		c2.3-0.1,4.5,0.9,6,2.6c1.6,2,2.3,4.4,2.2,6.9c0,0.1,0,0.4,0,0.8s0,0.7,0,0.9h-14c-0.1,2,0.5,3.9,1.8,5.4c1.2,1.3,2.9,2,4.7,1.9
		c2.3,0,4.5-0.6,6.5-1.7l0.5,2.5C1038.5,186.6,1036,187.2,1033.6,187.2z M1036.7,170.2c-0.9-1.1-2.3-1.7-3.7-1.6
		c-1.5,0-2.9,0.6-3.9,1.7c-1.1,1.3-1.7,2.9-1.8,4.6h10.7C1038.2,173.2,1037.7,171.5,1036.7,170.2L1036.7,170.2z"/>
	<path class="st3" d="M1052,187.1c-2,0-3.4-0.5-4.3-1.5c-1-1.4-1.4-3-1.3-4.7v-12.2h-3l0.1-2l2.9-0.3l1.1-4.7l2-0.1v4.7h5.7v2.3
		h-5.7v11.7c-0.1,1.1,0.1,2.3,0.7,3.3c0.6,0.7,1.5,1,2.4,1c0.9-0.1,1.8-0.2,2.7-0.3l0.1,2.5C1054.3,187,1053.1,187.1,1052,187.1z"/>
</g>
<polyline class="st1" points="65.7,228.4 65.7,128.1 1144.2,128.1 1144.2,228.4 "/>
<line class="st1" x1="605.2" y1="128.1" x2="605.2" y2="69"/>
<g>
	<path class="st4" d="M547,32c-2.6,0.1-5.2-0.9-7-2.8c-1.8-2.2-2.7-4.9-2.5-7.7c-0.1-2.8,0.8-5.5,2.5-7.7c1.6-1.9,4-3,6.5-3
		c2.3-0.1,4.5,0.9,6,2.6c1.6,2,2.3,4.4,2.2,6.9c0,0.1,0,0.4,0,0.8c0,0.4,0,0.7,0,0.9h-14c-0.1,2,0.5,3.9,1.8,5.4
		c1.2,1.3,2.9,2,4.7,1.9c2.3,0,4.5-0.6,6.5-1.7l0.5,2.5C551.9,31.4,549.5,32,547,32z M550.1,15c-0.9-1.1-2.3-1.7-3.7-1.6
		c-1.5,0-2.9,0.6-3.9,1.7c-1.1,1.3-1.7,2.9-1.8,4.6h10.7C551.6,18,551.1,16.3,550.1,15L550.1,15z"/>
	<path class="st4" d="M564.5,32c-2,0-3.4-0.5-4.2-1.6c-0.8-1.1-1.2-2.9-1.2-5.6V3.4l3.1-0.2v20.4c0,0.8,0,1.5,0,2
		c0,0.5,0.1,1,0.1,1.5c0,0.4,0.1,0.8,0.3,1.1c0.1,0.3,0.3,0.5,0.5,0.7c0.2,0.2,0.5,0.3,0.8,0.4c0.4,0.1,0.8,0.1,1.2,0.1
		c0.8,0,1.6-0.1,2.3-0.2l0.2,2.5C566.6,31.8,565.5,32,564.5,32z"/>
	<path class="st4" d="M578.2,32c-2.6,0.1-5.2-0.9-7-2.8c-1.8-2.2-2.7-4.9-2.5-7.7c-0.1-2.8,0.8-5.5,2.5-7.7c1.6-1.9,4-3,6.5-3
		c2.3-0.1,4.5,0.9,6,2.6c1.6,2,2.3,4.4,2.2,6.9c0,0.1,0,0.4,0,0.8c0,0.4,0,0.7,0,0.9h-14c-0.1,2,0.5,3.9,1.8,5.4
		c1.2,1.3,2.9,2,4.7,1.9c2.3,0,4.5-0.6,6.5-1.7l0.5,2.5C583.1,31.4,580.6,32,578.2,32z M581.3,15c-0.9-1.1-2.3-1.7-3.7-1.6
		c-1.5,0-2.9,0.6-3.9,1.7c-1.1,1.3-1.7,2.9-1.8,4.6h10.7C582.8,18,582.3,16.3,581.3,15L581.3,15z"/>
	<path class="st4" d="M615.9,31.6V21c0-1,0-1.8-0.1-2.5c0-0.7-0.1-1.3-0.3-2c-0.1-0.6-0.3-1.1-0.7-1.6c-0.3-0.4-0.7-0.8-1.2-1
		c-0.6-0.3-1.2-0.4-1.8-0.4c-1.2,0-2.5,0.3-3.5,1.1c-1,0.8-1.7,1.9-2,3.1c-0.1,0.9-0.2,1.9-0.2,2.9v11.1h-3.1V20.7
		c0-0.9,0-1.7-0.1-2.4c-0.1-0.7-0.2-1.3-0.3-2c-0.1-0.6-0.4-1.1-0.7-1.6c-0.3-0.4-0.7-0.7-1.2-0.9c-0.5-0.2-1.1-0.4-1.7-0.4
		c-1.3,0-2.7,0.4-3.7,1.1c-1,0.7-1.7,1.8-2,3c-0.1,1-0.2,2.1-0.2,3.1v10.9h-3.1c0-12.7,0-19.5,0-20.4h2.6l0.4,2.9
		c0.7-1,1.6-1.8,2.6-2.4c1.2-0.7,2.5-1,3.9-1c0.7,0,1.4,0.1,2.1,0.2c0.6,0.1,1.1,0.3,1.6,0.6c0.4,0.2,0.8,0.5,1.1,0.8
		c0.3,0.3,0.6,0.6,0.8,1c0.2,0.3,0.3,0.7,0.5,1c1.4-2.4,4-3.8,6.8-3.6c2.3,0,3.9,0.6,5,1.9c1.2,1.7,1.7,3.7,1.6,5.7v13.1h-3.1
		L615.9,31.6z"/>
	<path class="st4" d="M631.6,32c-2.6,0.1-5.2-0.9-7-2.8c-1.8-2.2-2.7-4.9-2.5-7.7c-0.1-2.8,0.8-5.5,2.5-7.7c1.6-1.9,4-3,6.5-3
		c2.3-0.1,4.5,0.9,6,2.6c1.6,2,2.3,4.4,2.2,6.9c0,0.1,0,0.4,0,0.8c0,0.4,0,0.7,0,0.9h-14c-0.1,2,0.5,3.9,1.8,5.4
		c1.2,1.3,2.9,2,4.7,1.9c2.3,0,4.5-0.6,6.5-1.7l0.5,2.5C636.5,31.4,634.1,32,631.6,32z M634.7,15c-0.9-1.1-2.3-1.7-3.7-1.6
		c-1.5,0-2.9,0.6-3.9,1.7c-1.1,1.3-1.7,2.9-1.8,4.6h10.7C636.2,18,635.7,16.3,634.7,15z"/>
	<path class="st4" d="M643.5,31.6V11.2h2.6l0.4,2.9c0.8-1,1.8-1.8,3-2.4c1.2-0.6,2.6-0.9,3.9-0.9c2.3,0,4.1,0.7,5.2,2
		c1.1,1.3,1.7,3.4,1.7,6.1v12.7h-3.1c0-8.2,0-12.5,0-13.1c0.1-1.3-0.3-2.7-1-3.8c-0.8-0.9-2-1.3-3.3-1.2c-1.4-0.1-2.8,0.3-4,1.1
		c-1,0.7-1.8,1.8-2.1,3c-0.1,0.9-0.2,1.9-0.2,2.9v11.1L643.5,31.6L643.5,31.6z"/>
	<path class="st4" d="M672,32c-2,0-3.4-0.5-4.3-1.5c-1-1.4-1.4-3-1.3-4.7V13.6h-3l0.1-2l2.9-0.3l1.1-4.7l2-0.1v4.7h5.7v2.3h-5.7
		v11.7c-0.1,1.1,0.1,2.3,0.7,3.3c0.6,0.7,1.5,1,2.4,0.9c0.9-0.1,1.8-0.2,2.7-0.3l0.1,2.4C674.3,31.8,673.1,32,672,32z"/>
</g>
<polyline class="st1" points="255.1,410.6 255.1,444.1 73.7,444.1 73.7,410.6 "/>
<line class="st1" x1="164.4" y1="444.1" x2="164.4" y2="477.6"/>
<g>
	<path class="st3" d="M86.4,521.6c0.1,2.8-0.8,5.5-2.5,7.7c-1.8,2-4.3,3.1-7,2.9c-2.6,0.1-5.1-1-6.8-3c-3.4-4.5-3.4-10.8,0-15.3
		c1.8-2,4.3-3.1,7-2.9c2.6-0.1,5.2,1,6.9,3C85.7,516.1,86.6,518.8,86.4,521.6z M70.8,521.6c-0.1,2.1,0.5,4.1,1.6,5.8
		c1.1,1.5,2.9,2.3,4.7,2.2c1.8,0.1,3.5-0.7,4.6-2.2c2.1-3.6,2.1-8.1,0-11.7c-2.2-2.6-6-2.9-8.6-0.7c-0.3,0.2-0.5,0.5-0.7,0.7
		C71.2,517.5,70.7,519.5,70.8,521.6z"/>
	<path class="st3" d="M90.8,540.6v-29.2h2.7l0.3,2.8c1.5-2,3.9-3.2,6.4-3.2c1.7-0.1,3.3,0.4,4.7,1.4c1.3,0.9,2.3,2.3,2.8,3.8
		c0.6,1.8,1,3.7,0.9,5.5c0,1.9-0.3,3.7-1,5.4c-0.6,1.5-1.6,2.8-2.9,3.7c-1.3,0.9-2.9,1.4-4.5,1.4c-1.3,0-2.5-0.3-3.7-0.9
		c-1.1-0.5-2.1-1.3-2.8-2.3c0.1,1.3,0.1,2.6,0.1,3.9v7.5L90.8,540.6z M99.8,529.6c0.9,0,1.8-0.2,2.5-0.6c0.7-0.4,1.4-1,1.8-1.8
		c0.5-0.8,0.8-1.6,1-2.5c0.2-1,0.4-2,0.3-3.1c0.1-2-0.4-4-1.5-5.7c-0.9-1.5-2.6-2.3-4.3-2.2c-3.9,0-5.9,2.5-5.9,7.6
		c-0.1,2.2,0.3,4.3,1.4,6.2C96.3,529,98,529.8,99.8,529.6L99.8,529.6z"/>
	<path class="st3" d="M121.7,532.2c-2.6,0.1-5.2-0.9-7-2.8c-1.8-2.2-2.7-4.9-2.6-7.7c-0.1-2.8,0.8-5.5,2.5-7.7c1.6-1.9,4-3,6.5-3
		c2.3-0.1,4.5,0.9,6,2.6c1.6,2,2.3,4.4,2.2,6.9c0,0.1,0,0.4,0,0.8s0,0.7,0,0.8h-14c-0.1,2,0.5,3.9,1.8,5.4c1.2,1.3,2.9,2,4.7,1.9
		c2.3,0,4.5-0.6,6.5-1.7l0.5,2.5C126.6,531.5,124.2,532.2,121.7,532.2z M124.8,515.2c-0.9-1.1-2.3-1.7-3.7-1.6
		c-1.5,0-2.9,0.6-3.9,1.7c-1.1,1.3-1.7,2.9-1.8,4.6h10.7C126.3,518.2,125.8,516.5,124.8,515.2L124.8,515.2z"/>
	<path class="st3" d="M133.7,531.8v-20.4h2.6l0.4,2.9c0.8-1,1.8-1.8,3-2.4c1.2-0.6,2.6-0.9,3.9-0.9c2.3,0,4.1,0.7,5.2,2
		c1.1,1.3,1.7,3.4,1.7,6.1v12.7h-3.1c0-8.2,0-12.5,0-13.1c0.1-1.3-0.3-2.7-1-3.8c-0.8-0.9-2-1.3-3.3-1.2c-1.4-0.1-2.8,0.3-4,1.2
		c-1,0.7-1.8,1.8-2.1,3c-0.1,0.9-0.2,1.9-0.2,2.9v11.1L133.7,531.8L133.7,531.8z"/>
	<path class="st3" d="M159.3,504v3.7h-3.1V504H159.3z M159.3,511.4v20.3h-3.1v-20.4L159.3,511.4L159.3,511.4z"/>
	<path class="st3" d="M165.1,531.8v-20.4h2.6l0.4,2.9c0.8-1,1.8-1.8,3-2.4c1.2-0.6,2.5-0.9,3.9-0.9c2.3,0,4.1,0.7,5.2,2
		c1.1,1.3,1.7,3.4,1.7,6.1v12.7h-3.1c0-8.2,0-12.5,0-13.1c0.1-1.3-0.3-2.7-1-3.8c-0.8-0.9-2-1.3-3.3-1.2c-1.4-0.1-2.8,0.3-4,1.2
		c-1,0.7-1.8,1.8-2.1,3c-0.1,0.9-0.2,1.9-0.2,2.9v11.1L165.1,531.8L165.1,531.8z"/>
	<path class="st3" d="M190.2,541.1l-0.3-2.8h3.8c0.9,0,1.8-0.1,2.8-0.2c0.7-0.1,1.4-0.4,1.9-0.7c0.5-0.3,0.9-0.7,1.3-1.1
		c0.4-0.5,0.6-1,0.7-1.6c0.2-0.7,0.3-1.3,0.3-2c0.1-0.7,0.1-1.5,0.1-2.4v-1.8c-0.7,1-1.6,1.8-2.6,2.5c-1.1,0.6-2.4,0.9-3.7,0.9
		c-1.1,0-2.2-0.2-3.2-0.6c-0.9-0.4-1.8-0.9-2.5-1.6c-0.7-0.7-1.3-1.5-1.7-2.3c-0.5-0.9-0.8-1.8-1-2.7c-0.2-0.9-0.3-1.9-0.3-2.8
		c0-1.4,0.2-2.8,0.6-4.1c0.3-1.2,0.9-2.4,1.6-3.4c0.7-1,1.7-1.8,2.8-2.3c1.3-0.6,2.6-0.9,4-0.8c1.2,0,2.4,0.2,3.5,0.8
		c1.1,0.6,2,1.4,2.7,2.4v-2.7h3v18.9c0,0.9,0,1.6-0.1,2.3c-0.1,0.7-0.2,1.4-0.3,2.2c-0.1,0.7-0.4,1.4-0.7,2
		c-0.3,0.6-0.7,1.2-1.2,1.7c-0.5,0.6-1.1,1-1.8,1.4c-0.8,0.4-1.7,0.7-2.6,0.9c-1.2,0.2-2.4,0.3-3.6,0.3L190.2,541.1L190.2,541.1z
		 M195,529.1c1,0,1.9-0.2,2.8-0.6c0.7-0.3,1.4-0.9,1.9-1.5c0.5-0.7,0.8-1.4,1-2.2c0.2-0.9,0.3-1.7,0.3-2.6v-1.5
		c0-0.9-0.1-1.8-0.3-2.7c-0.2-0.8-0.5-1.6-1-2.2c-0.5-0.7-1.1-1.2-1.9-1.5c-0.8-0.4-1.8-0.6-2.7-0.6c-0.8,0-1.6,0.2-2.3,0.5
		c-0.7,0.3-1.3,0.7-1.7,1.3c-0.5,0.6-0.9,1.2-1.1,1.8c-0.3,0.7-0.5,1.4-0.7,2.1c-0.1,0.7-0.2,1.4-0.2,2.2c0,0.7,0.1,1.4,0.2,2.1
		c0.2,0.7,0.4,1.4,0.7,2.1c0.3,0.6,0.7,1.2,1.2,1.8c0.5,0.5,1.1,0.9,1.7,1.2C193.5,528.9,194.2,529.1,195,529.1L195,529.1z"/>
	<path class="st3" d="M225.1,532.1c-2,0-3.4-0.5-4.3-1.5c-1-1.4-1.4-3-1.3-4.7v-12.2h-3l0.1-2l2.9-0.3l1.1-4.7l2-0.1v4.7h5.7v2.3
		h-5.7v11.7c-0.1,1.1,0.1,2.3,0.7,3.3c0.6,0.7,1.5,1,2.4,1c0.9-0.1,1.8-0.2,2.6-0.3l0.1,2.5C227.3,532,226.2,532.1,225.1,532.1z"/>
	<path class="st3" d="M244.3,531.8c-0.2-0.8-0.4-1.6-0.5-2.6c-0.9,1-2,1.8-3.2,2.3c-1.1,0.5-2.3,0.7-3.5,0.7
		c-1.7,0.1-3.3-0.4-4.6-1.5c-1.2-1.1-1.8-2.7-1.7-4.3c-0.1-1.9,0.8-3.6,2.4-4.6c2.1-1.2,4.4-1.8,6.8-1.9l1.9-0.2l1.9-0.2v-1.8
		c0.1-1.2-0.3-2.3-1-3.2c-0.9-0.7-2-1.1-3.1-1c-2.1,0-4.2,0.5-6.1,1.5c-0.1-0.1-0.2-0.6-0.5-1.3l-0.4-1.1c1-0.5,2.1-1,3.2-1.2
		c1.2-0.3,2.5-0.5,3.8-0.5c2.5,0,4.4,0.6,5.5,1.7c1.1,1.1,1.7,3,1.7,5.7v13.5L244.3,531.8L244.3,531.8z M237.6,529.7
		c1.4,0,2.8-0.4,3.9-1.2c1.1-0.8,1.9-2,2.2-3.3v-3.4l-1.1,0.1l-1.3,0.1c-1.9,0-3.9,0.5-5.6,1.3c-1.1,0.7-1.7,1.9-1.6,3.1
		c-0.1,0.9,0.3,1.8,1,2.5C235.7,529.4,236.6,529.7,237.6,529.7z"/>
	<path class="st3" d="M255.2,541.1l-0.3-2.8h3.8c0.9,0,1.8-0.1,2.8-0.2c0.7-0.1,1.4-0.4,2-0.7c0.5-0.3,0.9-0.7,1.3-1.1
		c0.4-0.5,0.6-1,0.7-1.6c0.2-0.7,0.3-1.3,0.3-2c0.1-0.7,0.1-1.5,0.1-2.4v-1.8c-0.7,1-1.6,1.8-2.6,2.5c-1.1,0.6-2.4,0.9-3.7,0.9
		c-1.1,0-2.2-0.2-3.2-0.6c-0.9-0.4-1.8-0.9-2.5-1.6c-0.7-0.7-1.3-1.5-1.7-2.3c-0.5-0.9-0.8-1.8-1-2.7c-0.2-0.9-0.3-1.9-0.3-2.8
		c0-1.4,0.2-2.8,0.6-4.1c0.3-1.2,0.9-2.4,1.6-3.4c0.7-1,1.7-1.8,2.8-2.3c1.3-0.6,2.6-0.9,4-0.8c1.2,0,2.4,0.2,3.5,0.8
		c1.1,0.6,2,1.4,2.7,2.4v-2.7h3v18.9c0,0.9,0,1.6-0.1,2.3c-0.1,0.7-0.2,1.4-0.3,2.2c-0.1,0.7-0.4,1.4-0.7,2
		c-0.3,0.6-0.7,1.2-1.2,1.7c-0.5,0.6-1.1,1-1.8,1.4c-0.8,0.4-1.7,0.7-2.6,0.9c-1.2,0.2-2.4,0.3-3.6,0.3L255.2,541.1L255.2,541.1z
		 M260,529.1c1,0,1.9-0.2,2.8-0.6c0.7-0.3,1.4-0.9,1.9-1.5c0.5-0.7,0.8-1.4,1-2.2c0.2-0.9,0.3-1.7,0.3-2.6v-1.5
		c0-0.9-0.1-1.8-0.3-2.7c-0.2-0.8-0.5-1.6-1-2.2c-0.5-0.7-1.1-1.2-1.9-1.5c-0.8-0.4-1.8-0.6-2.7-0.6c-0.8,0-1.6,0.2-2.3,0.5
		c-0.7,0.3-1.3,0.7-1.7,1.3c-0.5,0.6-0.9,1.2-1.1,1.8c-0.3,0.7-0.5,1.4-0.7,2.1c-0.1,0.7-0.2,1.4-0.2,2.2c0,0.7,0.1,1.4,0.2,2.1
		c0.2,0.7,0.4,1.4,0.7,2.1c0.3,0.6,0.7,1.2,1.2,1.8c0.5,0.5,1.1,0.9,1.7,1.2C258.5,528.9,259.2,529.1,260,529.1L260,529.1z"/>
</g>
<polyline class="st1" points="1146,410.6 1146,444.1 912,444.1 912,410.6 "/>
<line class="st1" x1="1029.3" y1="444.1" x2="1029.3" y2="477.6"/>
<g>
	<path class="st3" d="M950.1,532.2c-2.7,0.1-5.2-0.9-7-2.9c-1.8-2.1-2.7-4.9-2.5-7.6c-0.1-2.8,0.8-5.5,2.6-7.7c1.8-2,4.3-3.1,7-3
		c1,0,2.1,0.1,3,0.4c0.8,0.2,1.6,0.5,2.3,1l-0.8,2.4c-1.4-0.8-3-1.2-4.6-1.2c-1.8-0.1-3.5,0.7-4.7,2.2c-1.2,1.7-1.8,3.8-1.7,5.9
		c-0.1,2.1,0.5,4.1,1.7,5.8c1.1,1.4,2.9,2.2,4.7,2.1c1.7,0,3.4-0.5,4.9-1.3l0.4,2.5C953.8,531.7,951.9,532.2,950.1,532.2z"/>
	<path class="st3" d="M964.9,532.1c-2,0-3.4-0.5-4.2-1.6c-0.8-1.1-1.2-2.9-1.2-5.5v-21.5l3.1-0.2v20.5c0,0.8,0,1.5,0,2
		c0,0.5,0.1,1,0.1,1.5c0,0.4,0.1,0.8,0.3,1.1c0.1,0.3,0.3,0.5,0.5,0.7c0.2,0.2,0.5,0.3,0.8,0.4c0.4,0.1,0.8,0.1,1.2,0.1
		c0.8,0,1.6-0.1,2.3-0.2l0.2,2.5C967,532,966,532.1,964.9,532.1z"/>
	<path class="st3" d="M987.9,521.6c0.1,2.8-0.8,5.5-2.5,7.7c-1.8,2-4.3,3.1-7,2.9c-2.6,0.1-5.1-1-6.8-3c-3.4-4.5-3.4-10.8,0-15.3
		c1.8-2,4.3-3.1,7-2.9c2.6-0.1,5.1,1,6.8,2.9C987.1,516,988,518.8,987.9,521.6z M972.2,521.6c-0.1,2.1,0.5,4.1,1.6,5.8
		c1.1,1.5,2.9,2.3,4.7,2.2c1.8,0.1,3.5-0.7,4.6-2.2c2.1-3.6,2.1-8.1,0-11.7c-2.2-2.6-6-2.9-8.6-0.7c-0.3,0.2-0.5,0.5-0.7,0.7
		C972.7,517.5,972.1,519.5,972.2,521.6L972.2,521.6z"/>
	<path class="st3" d="M998.3,532.2c-1.3,0-2.6-0.1-3.8-0.5c-1-0.2-2-0.6-2.8-1.2l0.4-2.6c1.9,1,4,1.6,6.1,1.7c3,0,4.6-1.1,4.7-3.2
		c0-0.8-0.3-1.6-1-2.1c-1.2-0.8-2.4-1.4-3.8-1.7l-1.5-0.5c-1.4-0.4-2.8-1.2-3.8-2.2c-1.8-2.2-1.5-5.4,0.7-7.2c0,0,0,0,0,0
		c1.5-1.1,3.4-1.7,5.3-1.6c2.2,0,4.3,0.4,6.3,1.3l-0.9,2.4c-1.7-0.7-3.5-1.1-5.4-1.2c-1.1-0.1-2.1,0.2-3,0.8
		c-0.7,0.5-1.1,1.3-1.1,2.2c0,0.7,0.3,1.4,0.8,1.8c1,0.6,2.1,1.1,3.2,1.5c0.4,0.1,0.9,0.3,1.5,0.5c1.6,0.4,3.1,1.2,4.4,2.4
		c0.9,1,1.3,2.3,1.3,3.7c0.1,1.7-0.7,3.3-2,4.4C1002.1,531.8,1000.2,532.3,998.3,532.2z"/>
	<path class="st3" d="M1013.6,504v3.7h-3.1V504H1013.6z M1013.6,511.4v20.3h-3.1v-20.4L1013.6,511.4L1013.6,511.4z"/>
	<path class="st3" d="M1019.4,531.8v-20.4h2.6l0.4,2.9c0.8-1,1.8-1.8,3-2.4c1.2-0.6,2.6-0.9,3.9-0.9c2.3,0,4.1,0.7,5.2,2
		c1.1,1.3,1.7,3.4,1.7,6.1v12.7h-3.1c0-8.2,0-12.5,0-13.1c0.1-1.3-0.3-2.7-1-3.8c-0.8-0.9-2-1.3-3.3-1.2c-1.4-0.1-2.8,0.3-4,1.2
		c-1,0.7-1.8,1.8-2.1,3c-0.1,0.9-0.2,1.9-0.2,2.9v11.1L1019.4,531.8L1019.4,531.8z"/>
	<path class="st3" d="M1044.5,541.1l-0.3-2.8h3.8c0.9,0,1.8-0.1,2.8-0.2c0.7-0.1,1.4-0.4,1.9-0.7c0.5-0.3,0.9-0.7,1.3-1.1
		c0.4-0.5,0.6-1,0.7-1.6c0.2-0.7,0.3-1.3,0.3-2c0.1-0.7,0.1-1.5,0.1-2.4v-1.8c-0.7,1-1.6,1.8-2.6,2.5c-1.1,0.6-2.4,0.9-3.7,0.9
		c-1.1,0-2.2-0.2-3.2-0.6c-0.9-0.4-1.8-0.9-2.5-1.6c-0.7-0.7-1.3-1.5-1.7-2.3c-0.5-0.9-0.8-1.8-1-2.7c-0.2-0.9-0.3-1.9-0.3-2.8
		c0-1.4,0.2-2.8,0.6-4.1c0.3-1.2,0.9-2.4,1.6-3.4c0.7-1,1.7-1.8,2.8-2.3c1.3-0.6,2.6-0.9,4-0.8c1.2,0,2.4,0.2,3.5,0.8
		c1.1,0.6,2,1.4,2.7,2.4v-2.7h3v18.9c0,0.9,0,1.6-0.1,2.3c-0.1,0.7-0.2,1.4-0.3,2.2c-0.1,0.7-0.4,1.4-0.7,2
		c-0.3,0.6-0.7,1.2-1.2,1.7c-0.5,0.6-1.1,1-1.8,1.4c-0.8,0.4-1.7,0.7-2.6,0.9c-1.2,0.2-2.4,0.3-3.6,0.3L1044.5,541.1L1044.5,541.1z
		 M1049.3,529.1c1,0,1.9-0.2,2.8-0.6c0.7-0.3,1.4-0.9,1.9-1.5c0.5-0.7,0.8-1.4,1-2.2c0.2-0.9,0.3-1.7,0.3-2.6v-1.5
		c0-0.9-0.1-1.8-0.3-2.7c-0.2-0.8-0.5-1.6-1-2.2c-0.5-0.7-1.1-1.2-1.9-1.5c-0.8-0.4-1.8-0.6-2.7-0.6c-0.8,0-1.6,0.2-2.3,0.5
		c-0.7,0.3-1.3,0.7-1.7,1.3c-0.5,0.6-0.9,1.2-1.2,1.8c-0.3,0.7-0.5,1.4-0.7,2.1c-0.1,0.7-0.2,1.4-0.2,2.2c0,0.7,0.1,1.4,0.2,2.1
		c0.2,0.7,0.4,1.4,0.7,2.1c0.3,0.6,0.7,1.2,1.2,1.8c0.5,0.5,1.1,0.9,1.7,1.2C1047.8,528.9,1048.5,529.1,1049.3,529.1L1049.3,529.1z"
		/>
	<path class="st3" d="M1079.4,532.1c-2,0-3.4-0.5-4.3-1.5c-1-1.4-1.4-3-1.3-4.7v-12.2h-3l0.1-2l2.9-0.3l1.1-4.7l2-0.1v4.7h5.7v2.3
		h-5.7v11.7c-0.1,1.1,0.1,2.3,0.7,3.3c0.6,0.7,1.5,1,2.4,1c0.9-0.1,1.8-0.2,2.7-0.3l0.1,2.5C1081.6,532,1080.5,532.1,1079.4,532.1z"
		/>
	<path class="st3" d="M1098.6,531.8c-0.2-0.8-0.4-1.6-0.5-2.6c-0.9,1-2,1.8-3.2,2.3c-1.1,0.5-2.3,0.7-3.5,0.7
		c-1.7,0.1-3.3-0.4-4.6-1.5c-1.2-1.1-1.8-2.7-1.7-4.3c-0.1-1.9,0.8-3.6,2.4-4.6c2.1-1.2,4.4-1.8,6.8-1.9l1.8-0.2l1.8-0.2v-1.8
		c0.1-1.2-0.3-2.3-1-3.2c-0.9-0.7-2-1.1-3.2-1c-2.1,0-4.2,0.5-6.1,1.5c-0.1-0.1-0.2-0.6-0.5-1.3l-0.4-1.1c1-0.5,2.1-1,3.2-1.2
		c1.2-0.3,2.5-0.5,3.8-0.5c2.5,0,4.4,0.6,5.5,1.7c1.1,1.1,1.7,3,1.7,5.7v13.5L1098.6,531.8L1098.6,531.8z M1091.9,529.7
		c1.4,0,2.8-0.4,3.9-1.2c1.1-0.8,1.9-2,2.2-3.3v-3.4l-1.1,0.1l-1.3,0.1c-1.9,0-3.9,0.5-5.6,1.3c-1.1,0.7-1.7,1.9-1.6,3.1
		c-0.1,0.9,0.3,1.8,1,2.5C1090,529.4,1090.9,529.7,1091.9,529.7z"/>
	<path class="st3" d="M1109.5,541.1l-0.3-2.8h3.8c0.9,0,1.8-0.1,2.8-0.2c0.7-0.1,1.4-0.4,1.9-0.7c0.5-0.3,0.9-0.7,1.3-1.1
		c0.4-0.5,0.6-1,0.7-1.6c0.2-0.7,0.3-1.3,0.3-2c0.1-0.7,0.1-1.5,0.1-2.4v-1.8c-0.7,1-1.6,1.8-2.6,2.5c-1.1,0.6-2.4,0.9-3.7,0.9
		c-1.1,0-2.2-0.2-3.2-0.6c-0.9-0.4-1.8-0.9-2.5-1.6c-0.7-0.7-1.3-1.5-1.7-2.3c-0.5-0.9-0.8-1.8-1-2.7c-0.2-0.9-0.3-1.9-0.3-2.8
		c0-1.4,0.2-2.8,0.6-4.1c0.3-1.2,0.9-2.4,1.6-3.4c0.7-1,1.7-1.8,2.8-2.3c1.3-0.6,2.6-0.9,4-0.8c1.2,0,2.4,0.2,3.5,0.8
		c1.1,0.6,2,1.4,2.7,2.4v-2.7h3v18.9c0,0.9,0,1.6-0.1,2.3c-0.1,0.7-0.2,1.4-0.3,2.2c-0.1,0.7-0.4,1.4-0.7,2
		c-0.3,0.6-0.7,1.2-1.2,1.7c-0.5,0.6-1.1,1-1.8,1.4c-0.8,0.4-1.7,0.7-2.6,0.9c-1.2,0.2-2.4,0.3-3.6,0.3L1109.5,541.1L1109.5,541.1z
		 M1114.3,529.1c1,0,1.9-0.2,2.8-0.6c0.7-0.3,1.4-0.9,1.9-1.5c0.5-0.7,0.8-1.4,1-2.2c0.2-0.9,0.3-1.7,0.3-2.6v-1.5
		c0-0.9-0.1-1.8-0.3-2.7c-0.2-0.8-0.5-1.6-1-2.2c-0.5-0.7-1.1-1.2-1.9-1.5c-0.8-0.4-1.8-0.6-2.7-0.6c-0.8,0-1.6,0.2-2.3,0.5
		c-0.7,0.3-1.3,0.7-1.7,1.3c-0.5,0.6-0.9,1.2-1.2,1.8c-0.3,0.7-0.5,1.4-0.7,2.1c-0.1,0.7-0.2,1.4-0.2,2.2c0,0.7,0.1,1.4,0.2,2.1
		c0.2,0.7,0.4,1.4,0.7,2.1c0.3,0.6,0.7,1.2,1.2,1.8c0.5,0.5,1.1,0.9,1.7,1.2C1112.8,528.9,1113.5,529.1,1114.3,529.1L1114.3,529.1z"
		/>
</g>
</svg>
